<?xml version="1.0" encoding="UTF-8" standalone="no"?>
<!DOCTYPE svg PUBLIC "-//W3C//DTD SVG 1.1//EN" "http://www.w3.org/Graphics/SVG/1.1/DTD/svg11.dtd">
<svg width="100%" height="100%" viewBox="0 0 900 900" version="1.1" xmlns="http://www.w3.org/2000/svg" xmlns:xlink="http://www.w3.org/1999/xlink" xml:space="preserve" xmlns:serif="http://www.serif.com/" style="fill-rule:evenodd;clip-rule:evenodd;stroke-linejoin:round;stroke-miterlimit:2;">
    <rect x="0" y="0" width="270" height="270" style="fill:rgb(235,235,235);"/>
    <g transform="matrix(1,0,0,1,315,0)">
        <rect x="0" y="0" width="270" height="270" style="fill:rgb(235,235,235);"/>
    </g>
    <g transform="matrix(1,0,0,1,630,2.84217e-14)">
        <rect x="0" y="0" width="270" height="270" style="fill:rgb(235,235,235);"/>
    </g>
    <g transform="matrix(1,0,0,1,0,630)">
        <rect x="0" y="0" width="270" height="270" style="fill:rgb(235,235,235);"/>
    </g>
    <g transform="matrix(1,0,0,1,315,630)">
        <rect x="0" y="0" width="270" height="270" style="fill:rgb(235,235,235);"/>
    </g>
    <g transform="matrix(1,0,0,1,630,630)">
        <rect x="0" y="0" width="270" height="270" style="fill:rgb(235,235,235);"/>
    </g>
    <g transform="matrix(1,0,0,1,0,315)">
        <rect x="0" y="0" width="270" height="270" style="fill:rgb(235,235,235);"/>
    </g>
    <g transform="matrix(1,0,0,1,315,315)">
        <rect x="0" y="0" width="270" height="270" style="fill:rgb(235,235,235);"/>
    </g>
    <g transform="matrix(1,0,0,1,630,315)">
        <rect x="0" y="0" width="270" height="270" style="fill:rgb(235,235,235);"/>
    </g>
</svg>
